# xmcd CD database file
#
# Track frame offsets:
#	150
#	13784
#	28231
#	39404
#	50914
#	64972
#	82673
#	95620
#	109720
#	125117
#	137900
#	150589
#
# Disc length: 2186 seconds
#
# Revision: 0
# Processed by: cddbd v1.5.2PL0 Copyright (c) Steve Scherf et al.
# Submitted via: CDex 1.70beta2
#
DISCID=a408880c
DTITLE=Joey and Rory - Inspired: Songs of Faith and Family
DYEAR=2013
DGENRE=Country
TTITLE0=In the Garden
TTITLE1=Long Line of Love
TTITLE2=Are You Washed in the Blood
TTITLE3=My Life is Based on a True Story
TTITLE4=Turning to the Light
TTITLE5=The Preacher and the Stranger [Live]
TTITLE6=Amazing Grace
TTITLE7=It'll Get You Where You're Goin'
TTITLE8=Gotta Go Back
TTITLE9=Hammerin' Nails
TTITLE10=I See Him
TTITLE11=Leave It There
EXTD=YEAR: 2013
EXTT0=
EXTT1=
EXTT2=
EXTT3=
EXTT4=
EXTT5=
EXTT6=
EXTT7=
EXTT8=
EXTT9=
EXTT10=
EXTT11=
PLAYORDER=
